<svg xmlns="http://www.w3.org/2000/svg" width="293.468" height="180.345" viewBox="0 0 293.468 180.345">
  <g id="Management_Logo" transform="translate(-2602.441 2204)">
    <g id="Group_159" data-name="Group 159" transform="translate(2602.441 -2204)">
      <g id="Group_157" data-name="Group 157">
        <path id="Path_29" data-name="Path 29" d="M1355.1,1304.015V1484.36H1648.57V1304.015ZM1626,1461.785H1500.984v-135.2H1626Z" transform="translate(-1355.102 -1304.015)" fill="#6e6e6e"/>
      </g>
      <g id="Group_158" data-name="Group 158" transform="translate(29.02 39.96)">
        <path id="Path_30" data-name="Path 30" d="M1504.715,1489.4a8.078,8.078,0,0,0-2.459-3.072l-20.006,20.083v5.541Z" transform="translate(-1482.249 -1484.675)" fill="#0a0a0a"/>
        <path id="Path_31" data-name="Path 31" d="M1498.938,1479.248a8.1,8.1,0,0,0-1.556-.153h-3.811l-11.322,11.365V1496Z" transform="translate(-1482.249 -1479.095)" fill="#0a0a0a"/>
        <path id="Path_32" data-name="Path 32" d="M1483.065,1486.1l6.133-6.156A8.069,8.069,0,0,0,1483.065,1486.1Z" transform="translate(-1482.879 -1479.753)" fill="#0a0a0a"/>
        <path id="Path_33" data-name="Path 33" d="M1505.446,1568.689v-5.541l-23.2,23.285v5.541Z" transform="translate(-1482.249 -1543.964)" fill="#0a0a0a"/>
        <path id="Path_34" data-name="Path 34" d="M1505.446,1523.261v-5.542l-23.2,23.285v5.542Z" transform="translate(-1482.249 -1508.904)" fill="#0a0a0a"/>
        <path id="Path_35" data-name="Path 35" d="M1763.19,1486.547l3.459-3.472A8.088,8.088,0,0,0,1763.19,1486.547Z" transform="translate(-1699.068 -1482.167)" fill="#0a0a0a"/>
        <path id="Path_36" data-name="Path 36" d="M1560.607,1479.095h-5.064l-10.068,10.107v28.79h-28.681l-34.544,34.676v18.788a8.064,8.064,0,0,0,8.064,8.064h7.069a8.064,8.064,0,0,0,8.064-8.064v-33.1h40.028v33.1a8.064,8.064,0,0,0,8.064,8.064h7.069a8.064,8.064,0,0,0,8.064-8.064v-84.3A8.064,8.064,0,0,0,1560.607,1479.095Z" transform="translate(-1482.249 -1479.095)" fill="#0a0a0a"/>
        <path id="Path_37" data-name="Path 37" d="M1511.985,1649.517h-5.52l-24.216,24.308v5.541Z" transform="translate(-1482.249 -1610.62)" fill="#0a0a0a"/>
        <path id="Path_38" data-name="Path 38" d="M1505.446,1614.115v-5.541l-23.2,23.285v5.541Z" transform="translate(-1482.249 -1579.022)" fill="#0a0a0a"/>
      </g>
    </g>
    <g id="Group_163" data-name="Group 163" transform="translate(-283.826 156.922)">
      <rect id="Rectangle_20" data-name="Rectangle 20" width="124" height="134" transform="translate(3032.826 -2337.922)" fill="#fff"/>
      <g id="Group_160" data-name="Group 160" transform="translate(3055.911 -2321)">
        <path id="Path_39" data-name="Path 39" d="M2280.829,1696.972l-2.321-3.211-14.91,14.967,2.283,3.249Z" transform="translate(-2227.13 -1644.545)" fill="#0a0a0a"/>
        <path id="Path_40" data-name="Path 40" d="M2318.408,1749.629l-2.321-3.211-15.05,15.108,2.283,3.249Z" transform="translate(-2256.025 -1685.129)" fill="#0a0a0a"/>
        <path id="Path_41" data-name="Path 41" d="M2394.48,1851.793l-14.354,14.409a9.96,9.96,0,0,0,4.216.951h.356l11.287-11.33A9.859,9.859,0,0,0,2394.48,1851.793Z" transform="translate(-2317.062 -1766.359)" fill="#0a0a0a"/>
        <path id="Path_42" data-name="Path 42" d="M2372.457,1825.4l-15.26,15.318,1.281,1.823a9.936,9.936,0,0,0,1.121,1.306l15.178-15.236Z" transform="translate(-2299.367 -1745.991)" fill="#0a0a0a"/>
        <path id="Path_43" data-name="Path 43" d="M2299.618,1723.3l-2.321-3.212-14.98,15.037,2.283,3.249Z" transform="translate(-2241.577 -1664.837)" fill="#0a0a0a"/>
        <path id="Path_44" data-name="Path 44" d="M2337.2,1775.957l-2.321-3.211-15.12,15.178,2.283,3.249Z" transform="translate(-2270.472 -1705.353)" fill="#0a0a0a"/>
        <path id="Path_45" data-name="Path 45" d="M2138.3,1540.452l14.877-14.989-.982-1.365,23.863-28.543a10,10,0,0,0-15.255-12.928l-33.785,39.909v-35.347a8.079,8.079,0,0,0-8.064-8.094h-7.069a8.079,8.079,0,0,0-8.064,8.094V1571.8a8.079,8.079,0,0,0,8.064,8.094h7.069a8.079,8.079,0,0,0,8.064-8.094v-21.577l10.466-10.931Z" transform="translate(-2103.819 -1479.095)" fill="#0a0a0a"/>
        <path id="Path_46" data-name="Path 46" d="M2430.216,1894.938l-4.458,4.475A9.992,9.992,0,0,0,2430.216,1894.938Z" transform="translate(-2352.279 -1799.657)" fill="#0a0a0a"/>
        <path id="Path_47" data-name="Path 47" d="M2355.987,1802.285l-2.321-3.212-15.19,15.248,2.284,3.249Z" transform="translate(-2284.918 -1725.672)" fill="#0a0a0a"/>
      </g>
    </g>
  </g>
</svg>
